<?xml version="1.0" encoding="us-ascii" standalone="no"?><svg xmlns="http://www.w3.org/2000/svg" xmlns:xlink="http://www.w3.org/1999/xlink" contentStyleType="text/css" height="1086px" preserveAspectRatio="none" style="width:1106px;height:1086px;background:#FFFFFF;" version="1.1" viewBox="0 0 1106 1086" width="1106px" zoomAndPan="magnify"><defs/><g><g id="elem_U"><ellipse cx="22" cy="629" fill="#F1F1F1" rx="8" ry="8" style="stroke:#181818;stroke-width:0.5;"/><path d="M22,637 L22,664 M9,645 L35,645 M22,664 L9,679 M22,664 L35,679 " fill="none" style="stroke:#181818;stroke-width:0.5;"/><text fill="#000000" font-family="sans-serif" font-size="14" lengthAdjust="spacing" textLength="32" x="6" y="693.4951">User</text></g><g id="elem_vci"><ellipse cx="226.6635" cy="252.6327" fill="#F1F1F1" rx="86.1635" ry="19.6327" style="stroke:#181818;stroke-width:0.5;"/><text fill="#000000" font-family="sans-serif" font-size="14" lengthAdjust="spacing" textLength="133" x="160.1635" y="255.4794">View clothing items</text></g><g id="elem_atvcc"><ellipse cx="611.6446" cy="36.6289" fill="#F1F1F1" rx="141.1446" ry="30.6289" style="stroke:#181818;stroke-width:0.5;"/><text fill="#000000" font-family="sans-serif" font-size="14" lengthAdjust="spacing" textLength="252" x="485.6446" y="39.4756">Access the virtual clothing catalogue</text></g><g id="elem_dkts"><ellipse cx="611.5271" cy="128.3054" fill="#F1F1F1" rx="117.0271" ry="25.8054" style="stroke:#181818;stroke-width:0.5;"/><text fill="#000000" font-family="sans-serif" font-size="14" lengthAdjust="spacing" textLength="201" x="511.0271" y="131.1521">Describe keywords to search</text></g><g id="elem_bci"><ellipse cx="611.5118" cy="211.4024" fill="#F1F1F1" rx="95.0118" ry="21.4024" style="stroke:#181818;stroke-width:0.5;"/><text fill="#000000" font-family="sans-serif" font-size="14" lengthAdjust="spacing" textLength="153" x="535.0118" y="214.249">Browse clothing items</text></g><g id="elem_vri"><ellipse cx="611.2877" cy="292.3575" fill="#F1F1F1" rx="107.2877" ry="23.8575" style="stroke:#181818;stroke-width:0.5;"/><text fill="#000000" font-family="sans-serif" font-size="14" lengthAdjust="spacing" textLength="180" x="521.2877" y="295.2042">View recommended items</text></g><g id="elem_actoc"><ellipse cx="611.7481" cy="374.3496" fill="#F1F1F1" rx="102.2481" ry="22.8496" style="stroke:#181818;stroke-width:0.5;"/><text fill="#000000" font-family="sans-serif" font-size="14" lengthAdjust="spacing" textLength="169" x="527.2481" y="377.1963">Add clothes to outfit cart</text></g><g id="elem_GMN10"><path d="M870,354.5 L870,370.5 L713.877,374.5 L870,378.5 L870,394.7656 A0,0 0 0 0 870,394.7656 L1099,394.7656 A0,0 0 0 0 1099,394.7656 L1099,364.5 L1089,354.5 L870,354.5 A0,0 0 0 0 870,354.5 " fill="#FEFFDD" style="stroke:#181818;stroke-width:0.5;"/><path d="M1089,354.5 L1089,364.5 L1099,364.5 L1089,354.5 " fill="#FEFFDD" style="stroke:#181818;stroke-width:0.5;"/><text fill="#000000" font-family="sans-serif" font-size="13" lengthAdjust="spacing" textLength="208" x="876" y="371.5669">Note: &#23558;&#21916;&#27426;&#21512;&#36866;&#30340;&#34915;&#26381;&#21152;&#20837;&#26381;&#35013;&#26639;</text><text fill="#000000" font-family="sans-serif" font-size="13" lengthAdjust="spacing" textLength="104" x="876" y="386.6997">&#20379;&#25442;&#34915;&#26102;&#36827;&#34892;&#36873;&#25321;</text></g><g id="elem_tocv"><ellipse cx="226.5638" cy="556.3128" fill="#F1F1F1" rx="94.5638" ry="21.3128" style="stroke:#181818;stroke-width:0.5;"/><text fill="#000000" font-family="sans-serif" font-size="14" lengthAdjust="spacing" textLength="152" x="150.5638" y="559.1594">Try on clothes virtually</text></g><g id="elem_sbo"><ellipse cx="611.3093" cy="454.2619" fill="#F1F1F1" rx="96.8093" ry="21.7619" style="stroke:#181818;stroke-width:0.5;"/><text fill="#000000" font-family="sans-serif" font-size="14" lengthAdjust="spacing" textLength="157" x="532.8093" y="457.1085">Switch between outfits</text></g><g id="elem_vroc"><ellipse cx="611.6907" cy="544.7381" fill="#F1F1F1" rx="151.6907" ry="32.7381" style="stroke:#181818;stroke-width:0.5;"/><text fill="#000000" font-family="sans-serif" font-size="14" lengthAdjust="spacing" textLength="274" x="474.6907" y="547.5848">View recommended outfit combinations</text></g><g id="elem_sfoc"><ellipse cx="226.3631" cy="658.3726" fill="#F1F1F1" rx="127.3631" ry="27.8726" style="stroke:#181818;stroke-width:0.5;"/><text fill="#000000" font-family="sans-serif" font-size="14" lengthAdjust="spacing" textLength="223" x="114.8631" y="661.2193">Save favorite outfit combinations</text></g><g id="elem_sfoosp"><ellipse cx="611.6907" cy="644.7381" fill="#F1F1F1" rx="151.6907" ry="32.7381" style="stroke:#181818;stroke-width:0.5;"/><text fill="#000000" font-family="sans-serif" font-size="14" lengthAdjust="spacing" textLength="274" x="474.6907" y="647.5848">Share favorite outfits on social platforms</text></g><g id="elem_aai"><ellipse cx="226.4333" cy="738.4867" fill="#F1F1F1" rx="70.4333" ry="16.4867" style="stroke:#181818;stroke-width:0.5;"/><text fill="#000000" font-family="sans-serif" font-size="14" lengthAdjust="spacing" textLength="94" x="176.4333" y="742.2342">Add an image</text></g><g id="elem_tap"><ellipse cx="611.3288" cy="728.2658" fill="#F1F1F1" rx="69.3288" ry="16.2658" style="stroke:#181818;stroke-width:0.5;"/><text fill="#000000" font-family="sans-serif" font-size="14" lengthAdjust="spacing" textLength="91" x="562.8288" y="732.0133">Take a photo</text></g><g id="elem_GMN36"><path d="M568.5,780 L568.5,805.1328 A0,0 0 0 0 568.5,805.1328 L654.5,805.1328 A0,0 0 0 0 654.5,805.1328 L654.5,790 L644.5,780 L615.5,780 L611.5,745.398 L607.5,780 L568.5,780 A0,0 0 0 0 568.5,780 " fill="#FEFFDD" style="stroke:#181818;stroke-width:0.5;"/><path d="M644.5,780 L644.5,790 L654.5,790 L644.5,780 " fill="#FEFFDD" style="stroke:#181818;stroke-width:0.5;"/><text fill="#000000" font-family="sans-serif" font-size="13" lengthAdjust="spacing" textLength="65" x="574.5" y="797.0669">Note: &#25293;&#29031;</text></g><g id="elem_uai"><ellipse cx="611.5591" cy="858.6118" fill="#F1F1F1" rx="78.5591" ry="18.1118" style="stroke:#181818;stroke-width:0.5;"/><text fill="#000000" font-family="sans-serif" font-size="14" lengthAdjust="spacing" textLength="115" x="551.8328" y="862.1525">Upload an image</text></g><g id="elem_GMN40"><path d="M471,912 L471,937.1328 A0,0 0 0 0 471,937.1328 L752,937.1328 A0,0 0 0 0 752,937.1328 L752,922 L742,912 L615.5,912 L611.5,876.845 L607.5,912 L471,912 A0,0 0 0 0 471,912 " fill="#FEFFDD" style="stroke:#181818;stroke-width:0.5;"/><path d="M742,912 L742,922 L752,922 L742,912 " fill="#FEFFDD" style="stroke:#181818;stroke-width:0.5;"/><text fill="#000000" font-family="sans-serif" font-size="13" lengthAdjust="spacing" textLength="260" x="477" y="929.0669">Note: &#20174;&#35774;&#22791;&#20013;&#19978;&#20256;&#65288;&#19981;&#30693;&#36947;&#24590;&#20040;&#34920;&#36848;&#36739;&#22909;&#65289;</text></g><g id="elem_ucai"><ellipse cx="611.5329" cy="995.3066" fill="#F1F1F1" rx="104.5329" ry="23.3066" style="stroke:#181818;stroke-width:0.5;"/><text fill="#000000" font-family="sans-serif" font-size="14" lengthAdjust="spacing" textLength="174" x="524.5329" y="998.1533">Update/change an image</text></g><g id="elem_GMN44"><path d="M523,1054 L523,1079.1328 A0,0 0 0 0 523,1079.1328 L700,1079.1328 A0,0 0 0 0 700,1079.1328 L700,1064 L690,1054 L615.5,1054 L611.5,1019.1609 L607.5,1054 L523,1054 A0,0 0 0 0 523,1054 " fill="#FEFFDD" style="stroke:#181818;stroke-width:0.5;"/><path d="M690,1054 L690,1064 L700,1064 L690,1054 " fill="#FEFFDD" style="stroke:#181818;stroke-width:0.5;"/><text fill="#000000" font-family="sans-serif" font-size="13" lengthAdjust="spacing" textLength="156" x="529" y="1071.0669">Note: &#26356;&#26032;&#65288;&#27604;&#22914;&#20320;&#32982;&#20102;&#65289;</text></g><g id="elem_sai"><ellipse cx="984.5591" cy="858.6118" fill="#F1F1F1" rx="78.5591" ry="18.1118" style="stroke:#181818;stroke-width:0.5;"/><text fill="#000000" font-family="sans-serif" font-size="14" lengthAdjust="spacing" textLength="115" x="924.8328" y="862.1525">Submit an image</text></g><g id="elem_si"><ellipse cx="226.3913" cy="804.6302" fill="#F1F1F1" rx="44.3913" ry="14.6302" style="stroke:#181818;stroke-width:0.5;"/><text fill="#000000" font-family="sans-serif" font-size="14" lengthAdjust="spacing" textLength="46" x="200.3913" y="808.3777">Sign in</text></g><g id="elem_su"><ellipse cx="226.3687" cy="868.68" fill="#F1F1F1" rx="48.8687" ry="14.68" style="stroke:#181818;stroke-width:0.5;"/><text fill="#000000" font-family="sans-serif" font-size="14" lengthAdjust="spacing" textLength="52" x="197.3687" y="872.4275">Sign up</text></g><g id="elem_anf"><ellipse cx="226.3345" cy="932.5236" fill="#F1F1F1" rx="26.3345" ry="14.5236" style="stroke:#181818;stroke-width:0.5;"/><text fill="#000000" font-family="sans-serif" font-size="14" lengthAdjust="spacing" textLength="21" x="215.8345" y="935.3703">anf</text></g><g id="link_U_vci"><path d="M38.055,628.316 C77.4687,549.294 182.892,337.927 215.649,272.251 " fill="none" id="U-vci" style="stroke:#181818;stroke-width:1.0;"/></g><g id="link_vci_atvcc"><path d="M253.2618,229.5845 C292.4358,195.4535 375.3,127.23 460,84.5 C478.976,74.93 500.256,66.75 520.706,60 " fill="none" id="vci-backto-atvcc" style="stroke:#181818;stroke-width:1.0;stroke-dasharray:7.0,7.0;"/><polygon fill="#181818" points="248.738,233.526,258.1514,230.6297,252.5078,230.2415,252.8961,224.5979,248.738,233.526" style="stroke:#181818;stroke-width:1.0;"/><text fill="#000000" font-family="sans-serif" font-size="13" lengthAdjust="spacing" textLength="44" x="385" y="99.5669">extend</text></g><g id="link_vci_dkts"><path d="M278.8204,234.0635 C325.5504,217.4255 394.709,193.264 460,172.5 C485.423,164.415 513.437,156.072 538.332,148.853 " fill="none" id="vci-backto-dkts" style="stroke:#181818;stroke-width:1.0;stroke-dasharray:7.0,7.0;"/><polygon fill="#181818" points="273.168,236.076,282.9883,236.8255,277.8783,234.3989,280.3049,229.289,273.168,236.076" style="stroke:#181818;stroke-width:1.0;"/><text fill="#000000" font-family="sans-serif" font-size="13" lengthAdjust="spacing" textLength="44" x="385" y="179.5669">extend</text></g><g id="link_vci_bci"><path d="M310.5109,243.6134 C374.4049,236.7744 459.184,227.698 525.248,220.626 " fill="none" id="vci-backto-bci" style="stroke:#181818;stroke-width:1.0;stroke-dasharray:7.0,7.0;"/><polygon fill="#181818" points="304.545,244.252,313.9196,247.2714,309.5166,243.7199,313.0682,239.3169,304.545,244.252" style="stroke:#181818;stroke-width:1.0;"/><text fill="#000000" font-family="sans-serif" font-size="13" lengthAdjust="spacing" textLength="44" x="385" y="228.5669">extend</text></g><g id="link_vci_vri"><path d="M307.8382,262.6994 C333.8022,265.8884 357.194,268.631 384,271.5 C425.525,275.945 471.393,280.301 510.931,283.883 " fill="none" id="vci-backto-vri" style="stroke:#181818;stroke-width:1.0;stroke-dasharray:7.0,7.0;"/><polygon fill="#181818" points="301.883,261.968,310.3282,267.0353,306.8457,262.5775,311.3035,259.095,301.883,261.968" style="stroke:#181818;stroke-width:1.0;"/><text fill="#000000" font-family="sans-serif" font-size="13" lengthAdjust="spacing" textLength="44" x="385" y="267.5669">extend</text></g><g id="link_vci_actoc"><path d="M277.8339,271.1716 C324.4229,288.2366 394.064,313.06 460,333.5 C487.16,341.919 517.358,350.33 543.534,357.322 " fill="none" id="vci-backto-actoc" style="stroke:#181818;stroke-width:1.0;stroke-dasharray:7.0,7.0;"/><polygon fill="#181818" points="272.2,269.108,279.2752,275.9594,276.895,270.8277,282.0267,268.4475,272.2,269.108" style="stroke:#181818;stroke-width:1.0;"/><text fill="#000000" font-family="sans-serif" font-size="13" lengthAdjust="spacing" textLength="44" x="385" y="306.5669">extend</text></g><g id="link_U_tocv"><path d="M38.3079,656.073 C46.4433,649.273 57.0174,639.394 68,632.5 C108.311,607.196 161.141,590.196 194.205,576.795 " fill="none" id="U-tocv" style="stroke:#181818;stroke-width:1.0;"/></g><g id="link_U_tocv"><path d="M38.105,624.938 C46.2671,614.438 56.9259,604.451 68,597.5 C89.6394,583.917 114.886,572.726 138.746,564.598 " fill="none" id="U-tocv-1" style="stroke:#181818;stroke-width:1.0;"/></g><g id="link_tocv_sbo"><path d="M254.1182,531.5006 C282.5792,506.0966 330.285,468.72 384,452.5 C431.151,438.262 486.382,438.435 530.5,442.325 " fill="none" id="tocv-backto-sbo" style="stroke:#181818;stroke-width:1.0;stroke-dasharray:7.0,7.0;"/><polygon fill="#181818" points="249.642,535.496,259.0199,532.487,253.3722,532.1665,253.6927,526.5187,249.642,535.496" style="stroke:#181818;stroke-width:1.0;"/><text fill="#000000" font-family="sans-serif" font-size="13" lengthAdjust="spacing" textLength="44" x="385" y="440.5669">extend</text></g><g id="link_tocv_sbo"><path d="M294.4842,538.6221 C341.3682,526.1121 401.869,509.976 460,494.5 C488.869,486.814 520.856,478.311 547.891,471.128 " fill="none" id="tocv-backto-sbo-1" style="stroke:#181818;stroke-width:1.0;stroke-dasharray:7.0,7.0;"/><polygon fill="#181818" points="288.687,540.169,298.414,541.7135,293.518,538.88,296.3515,533.9839,288.687,540.169" style="stroke:#181818;stroke-width:1.0;"/><text fill="#000000" font-family="sans-serif" font-size="13" lengthAdjust="spacing" textLength="44" x="385" y="499.5669">extend</text></g><g id="link_tocv_vroc"><path d="M326.2111,553.4071 C368.6061,552.0791 413.9,550.66 461.501,549.168 " fill="none" id="tocv-backto-vroc" style="stroke:#181818;stroke-width:1.0;stroke-dasharray:7.0,7.0;"/><polygon fill="#181818" points="320.214,553.595,329.3348,557.3113,325.2115,553.4385,329.0844,549.3152,320.214,553.595" style="stroke:#181818;stroke-width:1.0;"/><text fill="#000000" font-family="sans-serif" font-size="13" lengthAdjust="spacing" textLength="44" x="385" y="546.5669">extend</text></g><g id="link_tocv_vroc"><path d="M310.0516,569.6842 C335.4096,573.2182 357.878,575.755 384,577.5 C425.137,580.248 470.132,575.348 509.102,568.548 " fill="none" id="tocv-backto-vroc-1" style="stroke:#181818;stroke-width:1.0;stroke-dasharray:7.0,7.0;"/><polygon fill="#181818" points="304.109,568.856,312.4707,574.06,309.0611,569.5462,313.575,566.1366,304.109,568.856" style="stroke:#181818;stroke-width:1.0;"/><text fill="#000000" font-family="sans-serif" font-size="13" lengthAdjust="spacing" textLength="44" x="385" y="573.5669">extend</text></g><g id="link_U_sfoc"><path d="M38.2204,665.628 C54.8688,668.948 83.1512,670.798 112.761,671.177 " fill="none" id="U-sfoc" style="stroke:#181818;stroke-width:1.0;"/></g><g id="link_U_sfoc"><path d="M38.2204,650.953 C55.1447,647.379 84.0919,645.414 114.235,645.059 " fill="none" id="U-sfoc-1" style="stroke:#181818;stroke-width:1.0;"/></g><g id="link_sfoc_sfoosp"><path d="M358.375,653.7159 C393.411,652.4359 425.85,651.25 462.11,649.924 " fill="none" id="sfoc-backto-sfoosp" style="stroke:#181818;stroke-width:1.0;stroke-dasharray:7.0,7.0;"/><polygon fill="#181818" points="352.379,653.935,361.519,657.6037,357.3757,653.7525,361.227,649.6091,352.379,653.935" style="stroke:#181818;stroke-width:1.0;"/><text fill="#000000" font-family="sans-serif" font-size="13" lengthAdjust="spacing" textLength="44" x="385" y="647.5669">extend</text></g><g id="link_sfoc_sfoosp"><path d="M341.0701,673.933 C357.4221,675.679 368.155,676.542 384,677.5 C424.955,679.977 469.718,675.088 508.555,668.372 " fill="none" id="sfoc-backto-sfoosp-1" style="stroke:#181818;stroke-width:1.0;stroke-dasharray:7.0,7.0;"/><polygon fill="#181818" points="335.104,673.296,343.6284,678.2289,340.0757,673.8269,344.4778,670.2742,335.104,673.296" style="stroke:#181818;stroke-width:1.0;"/><text fill="#000000" font-family="sans-serif" font-size="13" lengthAdjust="spacing" textLength="44" x="385" y="673.5669">extend</text></g><g id="link_U_aai"><path d="M38.032,669.356 C52.8907,679.653 76.5878,694.934 99,704.5 C122.425,714.499 149.567,722.257 172.688,727.82 " fill="none" id="U-aai" style="stroke:#181818;stroke-width:1.0;"/></g><g id="link_aai_tap"><path d="M291.2424,748.5195 C320.6994,752.7375 351.197,756.412 384,758.5 C445.952,762.443 516.806,750.353 562.525,740.36 " fill="none" id="aai-backto-tap" style="stroke:#181818;stroke-width:1.0;stroke-dasharray:7.0,7.0;"/><polygon fill="#181818" points="285.303,747.669,293.6451,752.9043,290.2525,748.3777,294.7791,744.9851,285.303,747.669" style="stroke:#181818;stroke-width:1.0;"/><text fill="#000000" font-family="sans-serif" font-size="13" lengthAdjust="spacing" textLength="44" x="385" y="754.5669">extend</text></g><g id="link_aai_uai"><path d="M283.8301,751.3331 C307.2491,757.1661 329.448,763.492 354,772.5 C402.901,790.442 410.854,805.238 460,822.5 C489.15,832.738 522.481,841.043 550.354,847.085 " fill="none" id="aai-backto-uai" style="stroke:#181818;stroke-width:1.0;stroke-dasharray:7.0,7.0;"/><polygon fill="#181818" points="278.008,749.883,285.7744,755.9396,282.8598,751.0914,287.7079,748.1768,278.008,749.883" style="stroke:#181818;stroke-width:1.0;"/><text fill="#000000" font-family="sans-serif" font-size="13" lengthAdjust="spacing" textLength="44" x="385" y="781.5669">extend</text></g><g id="link_aai_ucai"><path d="M297.4616,746.1983 C319.1466,751.0083 336.434,758.057 354,772.5 C377.337,791.688 369.279,807.117 384,833.5 C414.944,888.957 408.985,916.678 460,954.5 C478.165,967.967 500.491,977.011 522.332,983.0844 " fill="none" id="aai-backto-ucai" style="stroke:#181818;stroke-width:1.0;stroke-dasharray:7.0,7.0;"/><polygon fill="#181818" points="291.604,744.899,299.5242,750.753,296.4854,745.9817,301.2566,742.9429,291.604,744.899" style="stroke:#181818;stroke-width:1.0;"/><text fill="#000000" font-family="sans-serif" font-size="13" lengthAdjust="spacing" textLength="44" x="385" y="829.5669">extend</text></g><g id="link_tap_sai"><path d="M667.509,738.336 C696.306,744.133 731.942,752.332 763,762.5 C831.844,785.04 903.2731,818.4665 945.6291,839.3815 " fill="none" id="tap-to-sai" style="stroke:#181818;stroke-width:1.0;stroke-dasharray:7.0,7.0;"/><polygon fill="#181818" points="951.009,842.038,944.7102,834.4666,946.5258,839.8242,941.1682,841.6398,951.009,842.038" style="stroke:#181818;stroke-width:1.0;"/><text fill="#000000" font-family="sans-serif" font-size="13" lengthAdjust="spacing" textLength="45" x="794" y="768.5669">include</text></g><g id="link_uai_sai"><path d="M690.274,858.5 C753.592,858.5 836.538,858.5 899.829,858.5 " fill="none" id="uai-to-sai" style="stroke:#181818;stroke-width:1.0;stroke-dasharray:7.0,7.0;"/><polygon fill="#181818" points="905.829,858.5,896.829,854.5,900.829,858.5,896.829,862.5,905.829,858.5" style="stroke:#181818;stroke-width:1.0;"/><text fill="#000000" font-family="sans-serif" font-size="13" lengthAdjust="spacing" textLength="45" x="794" y="854.5669">include</text></g><g id="link_ucai_sai"><path d="M683.589,978.393 C708.902,971.71 737.454,963.488 763,954.5 C830.94,930.597 902.0272,897.9141 944.7012,877.4431 " fill="none" id="ucai-to-sai" style="stroke:#181818;stroke-width:1.0;stroke-dasharray:7.0,7.0;"/><polygon fill="#181818" points="950.111,874.848,940.2663,875.1341,945.6029,877.0106,943.7264,882.3471,950.111,874.848" style="stroke:#181818;stroke-width:1.0;"/><text fill="#000000" font-family="sans-serif" font-size="13" lengthAdjust="spacing" textLength="45" x="794" y="921.5669">include</text></g><g id="link_U_si"><path d="M38.1148,694.051 C50.7641,719.597 71.2231,752.867 99,772.5 C123.511,789.825 156.537,797.788 182.698,801.439 " fill="none" id="U-si" style="stroke:#181818;stroke-width:1.0;"/></g><g id="link_U_su"><path d="M29.0871,696.695 C37.5901,737.321 56.9922,800.574 99,836.5 C120.779,855.125 151.922,863.157 177.857,866.517 " fill="none" id="U-su" style="stroke:#181818;stroke-width:1.0;"/></g><g id="link_U_anf"><path d="M23.8177,696.927 C27.1223,750.515 41.3124,847.105 99,900.5 C126.598,926.044 171.594,931.916 199.821,932.887 " fill="none" id="U-anf" style="stroke:#181818;stroke-width:1.0;"/></g></g></svg>